<svg xmlns="http://www.w3.org/2000/svg" viewBox="0 0 452.81 329.11"><defs><style>.cls-1{fill:#fff;}.cls-2{fill:#d32427;}.cls-3{fill:#efeff0;}</style></defs><g id="Layer_2" data-name="Layer 2"><path class="cls-1" d="M116.08,188.8c-1.5-6.26-11.15-3.61-9.64,2.65,1.74,7.25,3.74,15,2.16,22.46-1.22,5.73-4.68,10.35-8.71,14.46-7.87,8-17.27,14.52-22.7,24.65-3,5.67,5.59,10.73,8.64,5,6-11.26,17.75-17.71,25.5-27.6C121.2,217.87,119.61,203.49,116.08,188.8Z" transform="translate(-49.37 -35.65)"/><path class="cls-1" d="M490.7,195.89a66.15,66.15,0,0,1-9.86,4.14c-4.54,3.83-10.28,6.29-16.09,5.79-3.37-.3-6.74-.58-10.11-.86-3.16.25-6.28.41-9.32.49a188.31,188.31,0,0,1-21.77-.72c9.42,45,18.14,90,22.88,135.79.54,5.19-6.92,6.45-9.31,2.53a56.27,56.27,0,0,0-19.95-19.47,23.1,23.1,0,0,1-16.63-3.14c-16.28.58-32.56,1.19-48.83,1.66a5.09,5.09,0,0,1-3.37,1.63c1.43-.13.05,5.58,0,6.47-.11,1.8,0,3.62-.07,5.43a47.2,47.2,0,0,1-.94,9.78c-1.11,4.91-4.8,12.88-10.92,12.41-6.6-.52-9-10.73-11.65-15.56a198.59,198.59,0,0,0-12.06-19.45c-15-.06-30.08-1.09-45.14-1.83-14.53.32-29.06.55-43.58.57-2.68,0-5.34-.06-8-.16q-3.09.32-6.18.73a5.22,5.22,0,0,1-4.27-1.3c-3.45-.24-6.89-.5-10.33-.76q-4.42.17-8.87.18a11.45,11.45,0,0,1,2.82,2c2.4-4,10-1.26,9,4.37-.67,3.91,1.35,7.95,2.32,11.66a23.3,23.3,0,0,1,.4,11.43c-.79,3.4-6,5.16-8.36,2.2-3.73-4.71-7.61-9.3-11.69-13.71-3.47-3.75-7.21-7-8.7-12.09a5.06,5.06,0,0,1,2.3-5.65c.33-.17.67-.3,1-.45q-5.94-.24-11.87-.78a52.61,52.61,0,0,0-16.36,4.69,4.93,4.93,0,0,1-4.9-.18c-2.09,3.11-2.9,7.27-2.86,11.26.06,5.72,3.2,12.9-.84,17.89a8.7,8.7,0,0,1-7.45,3.15,4.43,4.43,0,0,1-6.34-1.86l-.28-.58-.21-.15c-5-4-8.49-10.85-11.26-16.49-5.92-12.06-9.38-25.07-13.44-37.83a206.39,206.39,0,0,0-7.51-20.05c-2.14-4.93-4.09-9.88-4.59-15.12-5.49-8.23-9.84-17.65-8-27.08a96.28,96.28,0,0,1-4.82-23.72c-2.55-6.43-5.33-12.75-5.37-19.82,0-7.37,1.87-14.93,4.32-21.82a3.25,3.25,0,0,1,.18-.43,5.83,5.83,0,0,1-.8-1.74,5.62,5.62,0,0,1-1.21.57,4.14,4.14,0,0,1-1.16.19c.14.51.29,1,.43,1.52,1.59,6.25-8.06,8.89-9.65,2.66a61.32,61.32,0,0,0-10.29-21.61c-3.82-5.19,4.86-10.18,8.64-5.05a68.65,68.65,0,0,1,4.32,6.69,5.58,5.58,0,0,1,1.07-.92A5.05,5.05,0,0,1,72,155.2a28.88,28.88,0,0,1,3.29,8.58c0,.14,0,.28,0,.42,3.63-1.94,6.14-5.22,9.43-7.64a26.44,26.44,0,0,1,10.53-4.44,217.55,217.55,0,0,1,27.53-3.34c17-1.27,34.2.1,51.28-.81,17.24-.91,34.47-2,51.71-3.06l26.24-1.56a100.32,100.32,0,0,1-1.9-37c.14-1.16.29-2.33.44-3.51a5.41,5.41,0,0,1,.14-1c.41-3.07.87-6.22,1.44-9.39a4.76,4.76,0,0,1-2.65.61,11,11,0,0,0-4.21.68A5.16,5.16,0,0,1,242.71,96c-1.53.62-3,1.29-4.54,2-1.51,1.15-2.95,2.32-4.32,3.32q-7.68,5.59-15.28,11.29-13.81,10.36-27.33,21.12a4.17,4.17,0,0,1-2.51,4.31c-3.11,1.55-6,1.34-8.49-1.18-1.74-1.75-2.12-5.38,0-7.07s4.25-3.39,6.39-5.08a5.19,5.19,0,0,1,.7-1,138,138,0,0,1,46.34-34.54c4.81-3.4,9.74-6.38,15.88-6.11a4.74,4.74,0,0,1,4.07,2.38c2.65-11.44,7-22.51,15.31-30.18A36.22,36.22,0,0,1,272.44,51c11.45-11.77,29-14.23,44.55-11.36,14.35,2.66,31,9.15,41.86,19.14C364.52,64,368.92,70.7,373.26,77q6.87,10.06,13,20.62,6.33,10.93,11.82,22.35c2.36,4.9,5.31,15,11.94,15.28,3.88.17,8.19-1.68,12.06-2.22a71.24,71.24,0,0,1,10.62-.71,69.65,69.65,0,0,1,22.87,4.12,67,67,0,0,1,32.64,25.62C494.09,170.85,503.76,189,490.7,195.89Z" transform="translate(-49.37 -35.65)"/><path class="cls-2" d="M447.47,80.1c-6.8-1-11.71-4.19-17.79-7-6.23-2.85-12.71-2-19.25-3.33C399,67.55,388,59.91,376.65,67.22c-5.4,3.47-.39,12.13,5.05,8.63,4.72-3,10-1.64,15,0,5.3,1.8,10.27,3.68,15.88,4.25,6.09.61,10.86.86,16.31,3.89a45.5,45.5,0,0,0,15.9,5.71C451.1,90.65,453.82,81,447.47,80.1Z" transform="translate(-49.37 -35.65)"/><path class="cls-1" d="M447,79.78c-10-3-19.71-7.58-29.84-9.79s-20.1-4.39-30.45-4.39a5.45,5.45,0,0,0-1.09.1,5.2,5.2,0,0,0-1.32-.21l-4.55,0c-2.07,0-4.22-.07-5.74,1.61-2,2.18-2.07,6.44,1,7.86l.34.15a6.07,6.07,0,0,0,4.1.38h1.63l3.21,0a4.31,4.31,0,0,0,.95-.09,5.6,5.6,0,0,0,1.46.2c10,0,20,2.11,29.67,4.46,9.46,2.28,18.6,6.57,28,9.37C450.54,91.27,453.18,81.63,447,79.78Z" transform="translate(-49.37 -35.65)"/><path class="cls-3" d="M478,154.16c-1.94-1.54-3.89-3.06-5.86-4.54a68.71,68.71,0,0,0-10.6-6.68,81.84,81.84,0,0,0-31.45-8.81,58.87,58.87,0,0,0-21.12,2.45l-.5-.85c-7-11.41-14.17-22.75-21.29-34.1-.15-.67-.31-1.35-.52-2a45.52,45.52,0,0,0-13.31-20.88,26.9,26.9,0,0,0-.79-3.09,5.58,5.58,0,0,0,3,1.53l33.22,5a92.62,92.62,0,0,1,29.85,10c8.56,4.43,16.16-8.51,7.57-13C436,73.91,426.08,69.77,414.64,68q-17.55-2.69-35.11-5.34c-4-.61-8,1-9.23,5.24a6.8,6.8,0,0,0-.22,2.27,24.37,24.37,0,0,0-8.77-8.57c-8.55-7.88-20-12.85-30.93-16a103.93,103.93,0,0,0-38.74-3.74c-7.05.7-13.2,2.44-18.38,7.62a27.49,27.49,0,0,0-6.2,10,24.68,24.68,0,0,0-7.88,11.15,20.45,20.45,0,0,0-2,3.27A72.37,72.37,0,0,0,254,81.61a6.24,6.24,0,0,0-7.18-1.7c-26.05,9.24-46.41,27.89-66.06,46.66-7,6.68,3.62,17.28,10.61,10.61,17.63-16.85,36-34.49,59.44-42.8l0,0c-1.68,11.28-.65,22.77,2.23,34.53,1,4.27,2.18,8.53,3.37,12.77-.81.2-1.62.39-2.45.55s-4.88.62-.84.2c4.52-.46-1.2.16-2.15.29l-16.53,2.18c-8.11,1.07-16.22,2.3-24.35,3.23-7.21.64-14.44,1-21.66,1.42-7.14.15-14.27.21-21.4,1l-1.22.15c-6.46.41-12.9.94-19.33,1.7a97.62,97.62,0,0,0-27.73.09c-8.16,1.26-16.37,3.16-24.4,5.07a35.89,35.89,0,0,0-18.76,10.88c.68-4-.17-8-3.67-10.86a9.63,9.63,0,0,0-3.42-1.8c0-.5-.09-1-.11-1.53-.33-9.62-15.33-9.67-15,0A40.73,40.73,0,0,0,60,175.39a7.72,7.72,0,0,0,9.72,2.91,33.78,33.78,0,0,0-2.11,10c-.57,9.68,5,19.12,7.86,28.1,2.49,7.73,4.57,15.59,6.61,23.46,1.91,7.35,2.91,14.81,4.67,22.17,3.91,16.39,10.38,32.45,15.67,48.44a29.13,29.13,0,0,0,6.11,10.37,79.58,79.58,0,0,0,6.77,18.66,71.71,71.71,0,0,1,4.55,10.36c1.17,3.71,2.35,7.07,6.48,8.42,9.67,3.16,11.88-8.75,12.75-15.5.57-4.39,1.42-11,.12-16.25.19-.1.37-.19.55-.3l1.05-.15q6.69-1.26,13.39-2.33c2.56-.4,5.12-.77,7.68-1.15h.08l.71-.08c3.09-.35,6.19-.68,9.28-1a8.4,8.4,0,0,0-.72,5.63c1.3,5,4.43,8.82,7.92,12.54a25.46,25.46,0,0,1,3.8,4.5c1.39,2.43,2,5.24,3.38,7.72,2.89,5.37,12.56,4.63,13.71-1.79a48,48,0,0,0-1.67-24.71c-1.7-4.88-6.7-6-10.45-4.55a7.71,7.71,0,0,0-.71-.69c.84-.06,1.68-.14,2.52-.19,2.42-.15,4.83-.29,7.25-.4a23.07,23.07,0,0,0,4.88.32c10.51-.44,21-.62,31.5-.62q5.35.15,10.71.43a20.8,20.8,0,0,0,4.73-.31c21.3.34,42.59,1.29,63.88,2.24a5.9,5.9,0,0,0,1,4.56c6.39,8.4,12.7,16.84,17.66,26.19,3.72,7,13.48,3.16,14-3.79.13-1.9,1.3-3.92,1.52-5.92a56.64,56.64,0,0,0,.11-6.25c0-4.34,1-8.38,2.06-12.56a5.73,5.73,0,0,0,.13-.7c22.79.81,45.59,1.24,68.41.51l.3,0a7.85,7.85,0,0,0,2.25,2.28,26,26,0,0,1,6.75,6.59,42.46,42.46,0,0,0,3,4.22c.73.81,2.39,1.75,2.78,2.73,2.55,6.31,12.55,7.88,14.47,0,1.82-7.51.53-14.7-1.23-22.09-1-4.32-2.17-8.55-3.6-12.69a31.34,31.34,0,0,0,1.26-7c1.19-18.8-3.72-37.47-9.79-55.09-2.82-8.2-5.85-16.33-8.41-24.61-1.16-3.77-2.23-7.57-3.12-11.41h13.38c13.54,0,27.13.48,40.39-2.84,10.63-2.66,19.59-13.94,19.09-25.07C494.6,168.14,488.23,157.63,478,154.16Zm-144.72,68,.32.15.54.63c.11.18.21.37.31.56A5.46,5.46,0,0,1,333.25,222.17Zm87.06-27-.12.12c.17-.45.33-.9.5-1.36l.62-1.68Q422.45,189.14,420.31,195.18Z" transform="translate(-49.37 -35.65)"/></g><g id="Layer_1" data-name="Layer 1"><g id="Layer0_0_FILL" data-name="Layer0 0 FILL"><path d="M61.35,140.1a10.86,10.86,0,0,0-1.7-2.2,17.72,17.72,0,0,0-1.6-2.3,6.26,6.26,0,0,0-2.4-1.7,3.63,3.63,0,0,0-2.7-.2,5,5,0,0,0-3,3.2,21.59,21.59,0,0,0-.5,4.5,81.45,81.45,0,0,0,.5,14.3l1,4.6c1.7,7,3.6,13.3,5.5,18.9a32.71,32.71,0,0,0,1.5,3.9,31.4,31.4,0,0,0,2.6,4.5,9.16,9.16,0,0,0,3.9,3.6c.4,2.5.8,5.4,1.4,8.6a618.26,618.26,0,0,0,35.4,121.7c4.5,11,9.3,21.8,14.4,32.6a30.5,30.5,0,0,0,2.7,5,13.57,13.57,0,0,0,3.9,4,11.42,11.42,0,0,0,9.3,1.2,14.57,14.57,0,0,0,8-5.5c3.5-4.7,4.7-11,3.6-18.8a30.42,30.42,0,0,1-.4-4.3,6.34,6.34,0,0,1,1.1-3.8c1.2-1.5,3.5-2.5,6.9-2.8,4.5-.5,9.5-.9,14.9-1.3h.5a.92.92,0,0,1,1,.1,2.64,2.64,0,0,1,.8,1.3.37.37,0,0,1,.1.3l1.1,2a2.26,2.26,0,0,1,.5,1,.37.37,0,0,0,.1.3,8.1,8.1,0,0,0,.6,1.3,14.63,14.63,0,0,1,.9,1.3c1.3,1.9,3,4.5,5,7.7,2.5,3.8,4.1,6.4,4.9,7.6a14.22,14.22,0,0,0,1.9,2.4c.3.4.6.7.9,1.1a28.68,28.68,0,0,0,4.5,3.9,11.08,11.08,0,0,0,3,1.6,10.07,10.07,0,0,0,1.9.2h.5a3.75,3.75,0,0,0,1.1.1c2.6.1,4.6-.5,6-1.9a7.21,7.21,0,0,0,1.4-1.9c.5-1,.8-1.6,1.1-2.1a26.69,26.69,0,0,0,1.7-3.2,10.49,10.49,0,0,0,.6-4.6,46,46,0,0,0-.5-6l-1-7.4c-.4-2.6-.7-4.7-1.1-6.3,7.5-.1,15.4-.1,23.8,0q53.85.75,76.4-.9a6.6,6.6,0,0,0,1.4-.1h.1a5,5,0,0,1,1.8.9,13.69,13.69,0,0,0,1.4,1,6,6,0,0,0,.8.8c.5.4,1.2,1.1,2.2,1.9a43.33,43.33,0,0,1,8,11.3c1.5,2.8,3.7,6.9,6.6,12.5a23.19,23.19,0,0,0,5.8,6.5c2.6,1.9,5.2,2.6,7.8,2a9.34,9.34,0,0,0,4.4-2.5,13,13,0,0,0,2.9-4.3,27.41,27.41,0,0,0,1.4-5c.1-.4.4-2.1.8-5.1a112.5,112.5,0,0,1,3.8-16.9l55.3-.5a54.33,54.33,0,0,1,6.5.3,17.51,17.51,0,0,1,6.1,1.8,18.59,18.59,0,0,1,4.5,4.1l3.6,5.1a98.75,98.75,0,0,0,7.5,9.8q2.85,3.15,5.1,3.6a5.77,5.77,0,0,0,4.2-.7,7.93,7.93,0,0,0,3.2-3.1c1.1-1.8,1.7-4.7,1.9-8.6.7-13.3-.3-28.7-3.2-46.4q-1.35-8.55-3.3-17.7-10.05-42.3-13.7-63.6-.3-1.35-.6-2.4a147.79,147.79,0,0,0,48.5-3.4,48.32,48.32,0,0,0,13.6-5.2q6.9-4.35,9.3-10.8c1.4-3.7,1.5-8.1.3-13-1.6-6.9-5.3-13.5-11-19.8-4-4.5-9.8-9.4-17.5-14.6-8.7-5.8-16.2-9.7-22.7-11.8a54.38,54.38,0,0,0-6.4-1.6,92.42,92.42,0,0,0-23.5-1.1c-4.6.3-8,1-10.4,2.1-.1-.3-.1-.5-.2-.8a145.87,145.87,0,0,0-12-26.3c-3.2-5.6-8-13.2-14.6-23a164.06,164.06,0,0,1,33.6,5.8c8.1,2.5,14.1,4.3,18.2,5.3a65.21,65.21,0,0,0,18,2.3,1.27,1.27,0,0,1,.6-.1,7.05,7.05,0,0,0,4.8-1.4,5.42,5.42,0,0,0,1.7-4.2,9.39,9.39,0,0,0-3.4-7c-.1-.1-.3-.2-.4-.3a32.37,32.37,0,0,0-6.4-3.8,252.48,252.48,0,0,0-28.9-12.2,120.65,120.65,0,0,0-30.5-6.4,65.53,65.53,0,0,0-7.6-.1h-1.4c-.3,0-1.4.1-3.1.3-1,.1-1.8.3-2.6.4l-1.4.1H374l-2.3.3a20,20,0,0,0-2.1.4l-1.4.3h-.6l-.2-.2v-.1a80.83,80.83,0,0,0-24.6-16.4,99.92,99.92,0,0,0-33.4-8.2c-8.4-.6-15.6-.1-21.4,1.5-8.8,2.5-16.6,7.8-23.3,15.8a75.31,75.31,0,0,0-13,23.7,7.75,7.75,0,0,0-2.2-.1,36.81,36.81,0,0,0-7.9,1.6c-.8.3-1.7.6-2.6,1-2.1.7-4.3,1.5-6.6,2.5-.4.2-1.1.6-1.9,1-1.6.7-2.4,1.1-2.6,1.2l-3.4,1.8-.3.3q-1.35.75-3,1.8a190.31,190.31,0,0,0-22,15.7,124.72,124.72,0,0,0-18.6,19.4c-5.1,6.7-7.5,12.8-7.4,18.1a11.8,11.8,0,0,0,.4,2.8c-31,.7-55,2.6-72,5.9-8,1.5-14.5,3.5-19.6,6.1-1.4.8-2.8,1.5-4,2.3a14.54,14.54,0,0,0-1.8-2.1l-6.4-6.2c-2.1-2.1-3.6-3.6-4.5-4.6a27.41,27.41,0,0,1-3.9-5.3m-3.7,9.3,3.5,3.1c2.2,2.1,3.8,3.7,4.8,4.7a31.88,31.88,0,0,1,4.3,5.2c.3.5.6,1,.9,1.4a27.49,27.49,0,0,0-3.6,5.3,26.86,26.86,0,0,0-2.6,8c-.2-.7-.5-1.6-.9-2.6l-1.8-4.9a115.09,115.09,0,0,1-4.6-20.2m166.9-54.6,3.9-2.1c.1-.1.2-.2.3-.2q2.4-1.5,4.8-2.7l2-1c.4-.1.7-.2,1-.3s.3-.2.4-.2.3-.1.4-.2a27.55,27.55,0,0,1,4-1.4l1.9-.7.9-.2h.1a20.29,20.29,0,0,1,4.8-.9,3.4,3.4,0,0,1-.1,1,6,6,0,0,1-.5,1.6l-.5,1a.9.9,0,0,1-.1.5,2.09,2.09,0,0,0-.6.4c-1,.8-2.7,1.9-4.9,3.3-.2.2-.4.3-.6.5l-1.5,1.2-.8.8v-.1c-2.2,1.8-5,4.1-8.5,6.7l-17.5,13.3c-6.9,5.2-12.1,9-15.5,11.4a163,163,0,0,1-16.2,10.3,59.22,59.22,0,0,1,8.8-13.6,105.3,105.3,0,0,1,11.6-11.5,196.68,196.68,0,0,1,18.1-13.8l.1-.1.8-.5a23,23,0,0,1,3.4-2.5m-37.8,48.8a32.43,32.43,0,0,0,4.9-3.5c8.9-6,21.4-15,37.3-27.1l11.1-8.4v-.1h.1l.5-.5a14.85,14.85,0,0,1,1.5-1.1l2.5-1.8.3-.3c.2-.1.4-.3.6-.4s.3-.2.5-.4l.1-.1.3.1v.1h.2v.2h0v.6c-.1,2.9-.2,4.8-.3,5.8-.1.6-.1,1.1-.2,1.6,0,3.2.1,6.4.4,9.6a107.78,107.78,0,0,0,3.9,21.4h0a27.92,27.92,0,0,0-3.3.3c-10.5,1.5-22.7,2.6-36.4,3.2-4.6.3-12.6.5-24,.8M72.55,183.8a28.83,28.83,0,0,1,1.9-10.8c1.9-3.9,5.2-7.1,9.8-9.6a57.7,57.7,0,0,1,13.6-4.8,246.92,246.92,0,0,1,32.7-4.9c7.5-.7,18.5-1.3,33.1-1.8l85.3-3.1a20,20,0,0,0,4.6-.8c1,2.5,2.2,4.9,3.4,7.4a10.32,10.32,0,0,0,3.1,3.9c1.4,1.1,2.8,1.3,4,.5a3.47,3.47,0,0,0,1.5-3.7,11.74,11.74,0,0,0-1.5-4.6,90.27,90.27,0,0,1-10-39.5,91.65,91.65,0,0,1,7.8-40,61.8,61.8,0,0,1,9.8-15.7,38.52,38.52,0,0,1,14.6-10.7c5.2-2,11.8-2.9,19.8-2.5a92.66,92.66,0,0,1,32.1,7,74,74,0,0,1,18.9,11.3l.3.2c.1.1.2.1.3.2a75.8,75.8,0,0,1,17.2,19.8,42.33,42.33,0,0,1,2.5,4.6,8.79,8.79,0,0,0,.6,1c.2.1.3.3.4.4a32.31,32.31,0,0,1,1.8,2.8c4.4,6.6,7.9,12,10.3,16.3a119.71,119.71,0,0,1,12.1,28,14,14,0,0,0,.9,2.7,3.67,3.67,0,0,0,1.9,1.8c.1,0,.1.1.2.1l.9.3c.1,0,.2.1.3.1s.3.1.4.1.2.1.3.1a3.55,3.55,0,0,0,1,.2,5.49,5.49,0,0,0,2.4-.4c1.6-.8,2.7-1.4,3.5-1.8a14.09,14.09,0,0,1,4.9-1.3,31.86,31.86,0,0,1,5.2-.3c4.2-.1,7.4,0,9.7.1a60.4,60.4,0,0,1,7.8.8c.6.1,1.2.3,1.8.4a54.56,54.56,0,0,1,13.8,5.2,128.62,128.62,0,0,1,12.6,7.9A104.56,104.56,0,0,1,483,161.2a45.16,45.16,0,0,1,9.4,13.3,25.82,25.82,0,0,1,2,7.7,12,12,0,0,1-1.7,7.4,17,17,0,0,1-6.1,5.2,49.17,49.17,0,0,1-14.6,5.1,121.5,121.5,0,0,1-15.5,1.7c-9.1.5-17,.6-23.8.3-2.4-.1-4.7-.3-6.9-.5a100.88,100.88,0,0,1-16.5-3,15.41,15.41,0,0,0-5.8-.8,5.67,5.67,0,0,0-2.7,1.3,3.32,3.32,0,0,0-1.2,2.5,3.9,3.9,0,0,0,2,3.3,11.52,11.52,0,0,0,4.2,1.6c5.5,1.1,10.8,2,16.1,2.7a10.39,10.39,0,0,0,.1,3.9c.1.6.3,1.2.4,1.8q4,21.45,13.9,62.7c1.2,5.9,2.2,11.5,3.1,17,3,18.2,4,34.2,3.2,48q-3.9-2.4-9-10.2c-3.3-5.2-6.3-8.5-9-10a19.9,19.9,0,0,0-6.1-1.9c-1.5-.2-3.7-.4-6.5-.5-4.7-.1-10.1-.1-16.2-.1-10.9,0-24.2.1-39.7.5a31.6,31.6,0,0,0-4.4.4,8.67,8.67,0,0,0-3.9,1.6,9.19,9.19,0,0,0-2.9,4.1,25.43,25.43,0,0,0-1.4,5.1l-3.8,19.2c-.4,2.2-1.2,3.4-2.4,3.4-.8,0-1.7-.6-2.6-1.9-.4-.5-3.4-5.9-9-16.1q-4.8-8.7-9.9-13.2c-.2-.3-.4-.5-.6-.8a14.86,14.86,0,0,0-8.6-4.6,6.89,6.89,0,0,0-3.2,0h-.5c-15.4,1.1-40.8,1.4-76.4,1-32.8-.5-58.3.2-76.3,2.1a29.87,29.87,0,0,0-5.5.9,11.68,11.68,0,0,0-5,2.4c-2.7,2.3-4.1,6.1-4.3,11.3,0,1,0,3.1.2,6.3a31.64,31.64,0,0,1,0,6.2,10.08,10.08,0,0,1-2.4,6.4,6.22,6.22,0,0,1-3,1.8,4.64,4.64,0,0,1-3.3-.3,6.4,6.4,0,0,1-1.9-1.8,23.94,23.94,0,0,1-1.3-2.4q-7.35-15.3-13.8-30.9a601.58,601.58,0,0,1-36.1-125.8,65,65,0,0,1-1.2-10.8m112.7,158.1c-1.6-3-2.9-5.2-3.7-6.7-1.5-2.6-2.8-4.8-4-6.5-.4-.6-.9-1.1-1.3-1.6,5.9-.2,12.1-.4,18.8-.5.2.8.4,1.9.8,3.2a32.8,32.8,0,0,1,.8,4.4l1.1,7.5a13.71,13.71,0,0,1,.2,4.4,8.84,8.84,0,0,1,0,2.3,2.93,2.93,0,0,1-.6,2.1,3.19,3.19,0,0,1-1.1.6,5.84,5.84,0,0,1-2,.4,4.05,4.05,0,0,1-2.8-.7,3.82,3.82,0,0,1-.9-.9,2.58,2.58,0,0,1-.9-.9,3.81,3.81,0,0,1-.5-.6l-1.4-2.4a2.19,2.19,0,0,1-.3-.5l-.6-1c-.5-.7-1-1.6-1.6-2.6M376.65,71.3c-.7-1-1.4-1.9-2.1-2.8l1.2-.3c.4,0,.7-.1.9-.1s.7-.1,1-.2c11-1.7,23.3-.5,36.6,3.6,5.2,1.6,11,3.8,17.4,6.5,3,1.3,8.7,3.9,16.9,7.7a35.37,35.37,0,0,1-10.8-1.1c-1.4-.3-4.9-1.4-10.6-3.2a187.5,187.5,0,0,0-49.7-8.9c-.3-.5-.6-.9-.8-1.2m-11.3,43.3a6.58,6.58,0,0,0,.1,3.1,61.07,61.07,0,0,0,1.8,6.8,6.7,6.7,0,0,0,1.9,3.5,3.46,3.46,0,0,0,2,.7,4.65,4.65,0,0,0,2.1-.5,4.19,4.19,0,0,0,2.3-3.5,6.38,6.38,0,0,0-.4-3.2c-.7-2.1-1.1-3.2-1.1-3.3a20,20,0,0,0-.6-2.9A5.13,5.13,0,0,0,372,113a4.07,4.07,0,0,0-5-.5,3.36,3.36,0,0,0-1.6,2.1M334.15,138a64.76,64.76,0,0,0-18.7,0c-3.6.4-6.2,1.1-7.7,2.1a8,8,0,0,0-2.8,3,5.43,5.43,0,0,0-.6,3.9,4.17,4.17,0,0,0,2.6,2.9,3.27,3.27,0,0,0,3.7-.4c.2-.2.5-.6.9-1.1a4.43,4.43,0,0,1,1-1.2,6.76,6.76,0,0,1,3.7-1.1,73.54,73.54,0,0,1,20.9,1.2,71.82,71.82,0,0,1,19.7,7.3A87.19,87.19,0,0,1,377,170.3c4,4.3,6.9,8.1,8.6,11.6,2.3,5,2.9,9.7,1.6,14a17.43,17.43,0,0,1-4.5,7.4,24,24,0,0,1-7.3,4.9,32,32,0,0,1-8.4,2.4,68.16,68.16,0,0,1-8.9.8,160.3,160.3,0,0,1-43.6-4.3,48.92,48.92,0,0,1-10.9-3.7c-.5-.2-1.3-.6-2.3-1.1a6.77,6.77,0,0,0-2.3-.9,4.89,4.89,0,0,0-2.4-.1,3.9,3.9,0,0,0-2,1.3,3.59,3.59,0,0,0-.8,2.5,5.38,5.38,0,0,0,.9,2.5,11.41,11.41,0,0,0,4.2,3.1c3.3,1.6,8.2,3,14.7,4.4a230.89,230.89,0,0,0,27.6,4.3,104,104,0,0,0,27.7-1.2,42.39,42.39,0,0,0,14-4.9A27.37,27.37,0,0,0,393,202.6a22.66,22.66,0,0,0,2.3-6,25,25,0,0,0,0-10.9,26.43,26.43,0,0,0-1.4-4.8,8.65,8.65,0,0,0,2.3-.6,8.12,8.12,0,0,0,2.9-1.9,5.94,5.94,0,0,0,1.8-2.9,8.56,8.56,0,0,0-1.5-7.4c-1.8-2.7-4-4.4-6.7-4.9a10.89,10.89,0,0,0-6.5.9,7,7,0,0,0-2.4,1.5c-2.1-2.2-4.5-4.5-7.1-6.8a103,103,0,0,0-11.3-8.6,92.93,92.93,0,0,0-16.4-8,83.68,83.68,0,0,0-14.8-4.2m-10.8-19.6a61.07,61.07,0,0,0,1.8,6.8,6.7,6.7,0,0,0,1.9,3.5,3.46,3.46,0,0,0,2,.7,3.61,3.61,0,0,0,2.1-.4,4.19,4.19,0,0,0,2.3-3.5,8.08,8.08,0,0,0-.5-3.2c-.6-2.1-1-3.2-1-3.3a20,20,0,0,0-.6-2.9,5.13,5.13,0,0,0-1.5-2.3,4.77,4.77,0,0,0-2.4-1.1,4,4,0,0,0-2.6.6,3.18,3.18,0,0,0-1.6,2A6.61,6.61,0,0,0,323.35,118.4Z" transform="translate(-49.37 -35.65)"/></g></g></svg>